<svg width="18" height="24" viewBox="0 0 18 24" fill="none" xmlns="http://www.w3.org/2000/svg">
<path d="M9.5625 0C4.75313 0 0 3.28907 0 8.61217C0 11.9974 1.85625 13.9208 2.98125 13.9208C3.44531 13.9208 3.7125 12.5937 3.7125 12.2186C3.7125 11.7714 2.60156 10.8193 2.60156 8.95839C2.60156 5.09229 5.47031 2.3514 9.18281 2.3514C12.375 2.3514 14.7375 4.21232 14.7375 7.63122C14.7375 10.1846 13.7391 14.9739 10.5047 14.9739C9.3375 14.9739 8.33906 14.1084 8.33906 12.8678C8.33906 11.0501 9.57656 9.29018 9.57656 7.41483C9.57656 4.23155 5.175 4.80858 5.175 8.65545C5.175 9.46329 5.27344 10.3577 5.625 11.0934C4.97813 13.9497 3.65625 18.2053 3.65625 21.1481C3.65625 22.057 3.78281 22.9514 3.86719 23.8602C4.02656 24.0429 3.94688 24.0237 4.19063 23.9323C6.55313 20.6144 6.46875 19.9652 7.5375 15.6231C8.11406 16.7483 9.60469 17.3542 10.7859 17.3542C15.7641 17.3542 18 12.3773 18 7.89088C18 3.11596 13.9781 0 9.5625 0Z" fill="black"/>
</svg>
