<svg width="21" height="21" viewBox="0 0 21 21" fill="none" xmlns="http://www.w3.org/2000/svg">
<path d="M10.5023 5.11587C7.52276 5.11587 5.11941 7.51975 5.11941 10.5C5.11941 13.4803 7.52276 15.8841 10.5023 15.8841C13.4819 15.8841 15.8853 13.4803 15.8853 10.5C15.8853 7.51975 13.4819 5.11587 10.5023 5.11587ZM10.5023 14.0004C8.57685 14.0004 7.00273 12.4306 7.00273 10.5C7.00273 8.5694 8.57217 6.99961 10.5023 6.99961C12.4325 6.99961 14.002 8.5694 14.002 10.5C14.002 12.4306 12.4278 14.0004 10.5023 14.0004ZM17.361 4.89563C17.361 5.59383 16.7988 6.15146 16.1055 6.15146C15.4074 6.15146 14.8499 5.58914 14.8499 4.89563C14.8499 4.20211 15.4121 3.6398 16.1055 3.6398C16.7988 3.6398 17.361 4.20211 17.361 4.89563ZM20.9262 6.1702C20.8466 4.48795 20.4624 2.99782 19.2303 1.77011C18.0028 0.542396 16.5131 0.15815 14.8312 0.0738034C13.0978 -0.0246011 7.90223 -0.0246011 6.16882 0.0738034C4.49163 0.153464 3.00184 0.537711 1.76972 1.76542C0.537591 2.99314 0.158115 4.48326 0.0737869 6.16551C-0.0245956 7.89931 -0.0245956 13.096 0.0737869 14.8298C0.15343 16.512 0.537591 18.0022 1.76972 19.2299C3.00184 20.4576 4.48695 20.8419 6.16882 20.9262C7.90223 21.0246 13.0978 21.0246 14.8312 20.9262C16.5131 20.8465 18.0028 20.4623 19.2303 19.2299C20.4577 18.0022 20.8419 16.512 20.9262 14.8298C21.0246 13.096 21.0246 7.90399 20.9262 6.1702ZM18.6868 16.6901C18.3214 17.6086 17.614 18.3161 16.6911 18.6863C15.309 19.2346 12.0296 19.1081 10.5023 19.1081C8.97507 19.1081 5.69096 19.2299 4.31361 18.6863C3.39537 18.3208 2.68795 17.6132 2.31785 16.6901C1.76972 15.3078 1.89621 12.0276 1.89621 10.5C1.89621 8.97239 1.7744 5.68755 2.31785 4.30989C2.68327 3.39144 3.39069 2.68387 4.31361 2.31368C5.69565 1.76542 8.97507 1.89194 10.5023 1.89194C12.0296 1.89194 15.3137 1.77011 16.6911 2.31368C17.6093 2.67918 18.3167 3.38676 18.6868 4.30989C19.235 5.69223 19.1085 8.97239 19.1085 10.5C19.1085 12.0276 19.235 15.3125 18.6868 16.6901Z" fill="black"/>
</svg>
