<svg width="21" height="21" viewBox="0 0 21 21" fill="none" xmlns="http://www.w3.org/2000/svg">
<path d="M4.70062 21H0.346875V6.97937H4.70062V21ZM2.52141 5.06683C1.12922 5.06683 0 3.91368 0 2.52146C9.96468e-09 1.85273 0.265647 1.21139 0.738503 0.738519C1.21136 0.265653 1.85269 0 2.52141 0C3.19012 0 3.83145 0.265653 4.30431 0.738519C4.77716 1.21139 5.04281 1.85273 5.04281 2.52146C5.04281 3.91368 3.91313 5.06683 2.52141 5.06683ZM20.9953 21H16.6509V14.1748C16.6509 12.5482 16.6181 10.4623 14.3873 10.4623C12.1237 10.4623 11.7769 12.2295 11.7769 14.0577V21H7.42781V6.97937H11.6034V8.89192H11.6644C12.2456 7.79033 13.6655 6.6278 15.7838 6.6278C20.19 6.6278 21 9.52943 21 13.2983V21H20.9953Z" fill="black"/>
</svg>
